<?xml version="1.0" encoding="UTF-8"?>
<svg version="1.1" xmlns="http://www.w3.org/2000/svg" width="730" height="489">
<path d="M0 0 C240.9 0 481.8 0 730 0 C730 161.37 730 322.74 730 489 C489.1 489 248.2 489 0 489 C0 327.63 0 166.26 0 0 Z " fill="#FEFEFE" transform="translate(0,0)"/>
<path d="M0 0 C0.56976563 0.22429687 1.13953125 0.44859375 1.7265625 0.6796875 C3.39719997 -0.31366451 5.06331849 -1.31463008 6.7265625 -2.3203125 C12.75444252 -3.10170435 15.92734632 -1.7351394 20.7265625 1.6796875 C23.2792815 4.64413537 23.91165653 6.92708655 24.0390625 10.7421875 C23.76224145 14.23013271 23.44078652 15.78693447 21.7265625 18.6796875 C21.37832481 21.81445373 21.37832481 21.81445373 23.7890625 23.8046875 C24.24152344 24.23265625 24.69398438 24.660625 25.16015625 25.1015625 C32.11459319 32.10802765 36.79415666 39.07193204 37.1640625 49.1171875 C37.00375336 54.95511211 36.11721794 58.93480631 32.7265625 63.6796875 C32.28699219 64.32164062 31.84742188 64.96359375 31.39453125 65.625 C22.27753385 77.3963131 7.3964643 83.12305357 -6.2734375 87.6796875 C-7.77042584 87.78075483 -9.27141804 87.82744789 -10.77175903 87.84031677 C-12.15467133 87.85538521 -12.15467133 87.85538521 -13.56552124 87.87075806 C-15.08020493 87.87950455 -15.08020493 87.87950455 -16.62548828 87.88842773 C-18.22378479 87.90310341 -18.22378479 87.90310341 -19.85437012 87.91807556 C-23.39248408 87.94806254 -26.93055975 87.9694355 -30.46875 87.98828125 C-31.68042721 87.99485308 -32.89210442 88.0014249 -34.14049911 88.00819588 C-40.56614768 88.04081888 -46.99177958 88.06525128 -53.41748047 88.0847168 C-58.71330293 88.10245811 -64.00858572 88.13715956 -69.30419922 88.18725586 C-75.71385921 88.24781575 -82.12302272 88.27824345 -88.53295517 88.28788948 C-90.96395515 88.29639237 -93.39494375 88.31508063 -95.82577896 88.3446331 C-117.49127252 88.59363817 -137.10683269 85.11760769 -153.58203125 69.60546875 C-159.31115191 63.08247456 -161.13368271 56.46032345 -160.75 47.84765625 C-159.24212872 37.82402014 -151.76889055 28.26467592 -144.2734375 21.6796875 C-143.6134375 21.6796875 -142.9534375 21.6796875 -142.2734375 21.6796875 C-142.7684375 21.0815625 -143.2634375 20.4834375 -143.7734375 19.8671875 C-145.98881485 15.15951063 -146.08332948 10.79400538 -145.2734375 5.6796875 C-143.65243362 2.42481463 -141.3258223 0.45143635 -138.3984375 -1.6953125 C-135.22032647 -2.63005104 -132.56731935 -2.6092495 -129.2734375 -2.3203125 C-128.4071875 -1.7840625 -127.5409375 -1.2478125 -126.6484375 -0.6953125 C-125.8646875 -0.2415625 -125.0809375 0.2121875 -124.2734375 0.6796875 C-120.14324979 -0.56365621 -116.6838995 -2.83239971 -113.0234375 -5.0703125 C-76.44943847 -26.54095799 -35.15453683 -20.41620867 0 0 Z " fill="#83B271" transform="translate(431.2734375,96.3203125)"/>
<path d="M0 0 C7.01605093 6.05931671 10.79223807 14.4289499 12.75 23.375 C13.63045595 37.80870405 12.59512749 50.91554444 2.75 62.375 C-4.10492735 68.98355576 -11.39163403 71.48891365 -20.8125 71.75 C-25.99591753 71.63454287 -32.33239573 71.29260427 -36.25 67.375 C-36.58 79.585 -36.91 91.795 -37.25 104.375 C-45.17 104.375 -53.09 104.375 -61.25 104.375 C-61.25 69.065 -61.25 33.755 -61.25 -2.625 C-53.66 -2.625 -46.07 -2.625 -38.25 -2.625 C-37.92 -0.975 -37.59 0.675 -37.25 2.375 C-36.363125 1.59125 -35.47625 0.8075 -34.5625 0 C-24.96172832 -8.48440288 -10.45707239 -5.22853619 0 0 Z " fill="#131313" transform="translate(604.25,298.625)"/>
<path d="M0 0 C27.39 0 54.78 0 83 0 C83 22.78450874 83 22.78450874 76.62988281 29.69506836 C76.15905273 30.11409424 75.68822266 30.53312012 75.203125 30.96484375 C71.84648213 34.08742108 68.93845522 37.48740253 66 41 C64.99105633 42.17834616 63.98064428 43.35543667 62.96875 44.53125 C59.68106029 48.366888 56.41982089 52.22459185 53.16210938 56.08569336 C50.70377513 58.99629351 48.23414103 61.89653481 45.75 64.78515625 C45.20794922 65.41550781 44.66589844 66.04585938 44.10742188 66.6953125 C43.06298669 67.90853247 42.01747358 69.12082559 40.97070312 70.33203125 C38.53538637 73.1605674 36.24231553 76.01024596 34 79 C58.75 79.495 58.75 79.495 84 80 C84 87.26 84 94.52 84 102 C55.95 102 27.9 102 -1 102 C-1 80 -1 80 3.9375 73.3125 C5.94051601 71.52153799 7.96086449 69.74972696 10 68 C11.52173753 66.24434674 13.00289329 64.45254126 14.4375 62.625 C17.84726233 58.39470663 21.33066478 54.24225981 24.875 50.125 C29.75659273 44.45331389 34.60360142 38.75414205 39.4296875 33.03515625 C42.27249238 29.67822708 45.13721964 26.33991042 48 23 C32.16 22.67 16.32 22.34 0 22 C0 14.74 0 7.48 0 0 Z " fill="#111111" transform="translate(365,266)"/>
<path d="M0 0 C22.44 0 44.88 0 68 0 C68 7.26 68 14.52 68 22 C54.14 22 40.28 22 26 22 C26 27.94 26 33.88 26 40 C36.89 40 47.78 40 59 40 C59 47.26 59 54.52 59 62 C48.11 62 37.22 62 26 62 C26 67.94 26 73.88 26 80 C39.86 80 53.72 80 68 80 C68 87.26 68 94.52 68 102 C45.56 102 23.12 102 0 102 C0 68.34 0 34.68 0 0 Z " fill="#111111" transform="translate(122,266)"/>
<path d="M0 0 C5.07868741 4.28653063 8.90558583 8.68121276 11.0546875 15.01171875 C11.40789062 16.04683594 11.76109375 17.08195312 12.125 18.1484375 C15.19437464 30.90310773 14.05148372 45.06202525 7.65234375 56.5234375 C2.89930796 63.55421171 -4.1435153 67.3907737 -12.23828125 69.65234375 C-25.81272335 71.45443419 -39.50138452 71.01414387 -50.90625 62.79296875 C-58.35616574 56.28499638 -61.36459259 47.56626261 -62.109375 37.87744141 C-62.77571408 24.89215854 -61.9078263 13.2043815 -52.9453125 3.01171875 C-50.13184594 0.58503761 -47.23051395 -1.26272089 -43.9453125 -2.98828125 C-42.98238281 -3.49875 -42.98238281 -3.49875 -42 -4.01953125 C-29.76328013 -9.20214202 -10.7698461 -7.2703603 0 0 Z " fill="#131313" transform="translate(339.9453125,299.98828125)"/>
<path d="M0 0 C5.65158037 4.62781905 8.5267141 9.90440384 10 17 C10.49062512 22.68579996 10.60276605 28.35850319 10.6875 34.0625 C10.7207303 35.611356 10.75522508 37.16018542 10.79101562 38.70898438 C10.87526307 42.47250806 10.94237605 46.2359784 11 50 C13.31 50.66 15.62 51.32 18 52 C17.71512349 54.04262517 17.42177949 56.08407027 17.125 58.125 C16.96257812 59.26195312 16.80015625 60.39890625 16.6328125 61.5703125 C16.02568583 64.86078915 15.13654367 67.85779103 14 71 C-2.06934307 71.74452555 -2.06934307 71.74452555 -8 67 C-10.4375 64.75 -10.4375 64.75 -12 63 C-12.66 63.7425 -13.32 64.485 -14 65.25 C-19.641036 70.71962331 -24.60613995 72.2724434 -32.5 72.5 C-39.69806963 72.27841096 -44.52799335 71.36277498 -49.73828125 66.31640625 C-55.05009936 60.42142911 -56.54189703 56.0174646 -56.3671875 48.0390625 C-55.68552681 42.39723254 -53.29231521 39.04926308 -49.12109375 35.3203125 C-38.47813548 27.44099533 -26.75607941 26.36484252 -14 27 C-14.66 23.04 -15.32 19.08 -16 15 C-17.77375 14.938125 -19.5475 14.87625 -21.375 14.8125 C-22.37273437 14.77769531 -23.37046875 14.74289062 -24.3984375 14.70703125 C-25.68621094 14.85205078 -25.68621094 14.85205078 -27 15 C-28.9451 17.91765 -29.45276317 19.62537285 -30 23 C-51.93267652 20.06732348 -51.93267652 20.06732348 -54 18 C-54.73193104 12.9984712 -53.34812851 9.94054322 -50.625 5.89453125 C-39.9898897 -6.50457571 -13.52302564 -8.26277814 0 0 Z " fill="#141414" transform="translate(515,298)"/>
<path d="M0 0 C3.69445812 3.5946079 6.0846933 6.7730541 6.55859375 11.92578125 C6.56206638 14.38093343 6.48983721 16.80176135 6.3125 19.25 C3.41805905 19.9232656 0.52219987 20.58880404 -2.375 21.25 C-3.19162109 21.44078125 -4.00824219 21.6315625 -4.84960938 21.828125 C-8.85989326 22.73733916 -12.54467252 23.52000098 -16.6875 23.25 C-16.79707031 22.62351562 -16.90664062 21.99703125 -17.01953125 21.3515625 C-17.25736328 20.12566406 -17.25736328 20.12566406 -17.5 18.875 C-17.65082031 18.06289063 -17.80164063 17.25078125 -17.95703125 16.4140625 C-18.56294942 13.89179359 -18.56294942 13.89179359 -21.6875 12.25 C-25.74544794 11.79345108 -25.74544794 11.79345108 -29.6875 12.25 C-33.3724126 15.65145778 -34.50087435 18.74226604 -34.86450195 23.62841797 C-34.93090454 26.46071307 -34.97229848 29.29205748 -35 32.125 C-35.04350586 33.59646484 -35.04350586 33.59646484 -35.08789062 35.09765625 C-35.14114518 41.16867505 -34.6954017 44.60604507 -30.6875 49.25 C-29.11808802 50.81941198 -27.54615006 50.4949847 -25.375 50.5625 C-22.05033291 50.52550053 -20.98250971 50.4565068 -18.1875 48.5 C-16.72789589 46.31059384 -16.23979279 44.77780161 -15.6875 42.25 C-8.16157567 42.8877902 -1.01651118 44.44889833 6.3125 46.25 C5.43754404 53.4788028 2.06496195 58.34025451 -2.875 63.5625 C-13.79771656 70.11612993 -25.40695599 70.66607292 -37.78515625 68.77734375 C-45.18588111 66.86711029 -51.194313 62.84319959 -55.5 56.5 C-59.94750571 48.39186274 -61.17786257 40.40209729 -61.0625 31.25 C-61.07990234 29.86941406 -61.07990234 29.86941406 -61.09765625 28.4609375 C-61.05491624 18.34580137 -58.78580557 9.68328179 -51.6875 2.25 C-37.94824369 -10.09064938 -15.23963018 -9.92348012 0 0 Z " fill="#131313" transform="translate(262.6875,300.75)"/>
<path d="M0 0 C3.72500643 1.35454779 4.94363404 2.92382978 7.3125 6.125 C10.75785078 13.65995414 10.36624283 25.01918136 7.8125 32.8125 C5.78033379 36.38630955 4.67602367 38.12288153 1 40 C-4.06308124 40.8758213 -7.70374089 40.89117814 -12 37.9375 C-16.02516701 32.02553595 -16.34135545 25.85703719 -16.3125 18.9375 C-16.32861328 18.16083984 -16.34472656 17.38417969 -16.36132812 16.58398438 C-16.36653161 10.43866626 -15.07828755 6.25642648 -10.8125 1.625 C-7.06403604 -0.54077918 -4.22886008 -0.67902428 0 0 Z " fill="#FBFBFB" transform="translate(319,312)"/>
<path d="M0 0 C4.63442954 2.51871171 6.46631163 6.09591743 8 11 C8.42251029 13.8057536 8.47702901 16.54102514 8.4375 19.375 C8.42831543 20.49382568 8.42831543 20.49382568 8.41894531 21.63525391 C8.25902764 27.27788733 7.50900819 32.38630404 4 37 C0.28990911 40.42530779 -2.68556215 40.63546411 -7.58984375 40.4765625 C-10 40 -10 40 -13 37.4375 C-17.6941924 29.36935681 -18.21070483 20.45078669 -16.5 11.3359375 C-13.93223081 2.61135809 -9.29177952 -1.79077933 0 0 Z " fill="#FAFAFA" transform="translate(584,312)"/>
<path d="M0 0 C4.15692253 2.45112437 6.60233565 4.63276053 8.73828125 9.05859375 C9.57076431 14.63098034 9.48453644 19.5394314 6.98828125 24.62109375 C3.60374655 28.28767301 0.82446366 30.75291473 -4.3125 31.26171875 C-9.40540219 31.36727113 -12.90734621 30.9952636 -17.26171875 28.05859375 C-20.83722849 24.18512487 -23.03022003 21.06491597 -23.63671875 15.80859375 C-23.04641577 9.90556391 -20.99856795 5.7107186 -16.69921875 1.62109375 C-11.63491004 -1.62525799 -5.60506358 -2.33302301 0 0 Z " fill="#84B373" transform="translate(314.26171875,201.94140625)"/>
<path d="M0 0 C4.881441 2.26638332 7.70028068 5.13520912 10 10 C10.77674653 15.24700208 10.79996611 20.21797332 8.3125 25 C5.21761613 29.01498447 2.04284182 31.25840561 -3 32 C-8.4522176 32.62910203 -11.77608362 31.65755611 -16.19921875 28.6171875 C-20.27653636 24.9555617 -21.75243965 20.76386746 -22.5 15.4375 C-21.65075194 9.5989196 -18.68959589 4.51979071 -13.96875 0.8828125 C-9.53545357 -1.10513391 -4.70765191 -0.69192137 0 0 Z " fill="#85B373" transform="translate(446,200)"/>
<path d="M0 0 C4.13098667 1.74419437 6.76586028 4.11094196 9 8 C9.68007101 12.58670111 9.53722583 16.59724365 7.875 20.9375 C4.34062519 24.82531229 0.65503879 26.17889489 -4.5 26.5 C-7.81617547 26.38256377 -9.80683615 25.85142528 -12.4375 23.8125 C-15.91905631 19.99127966 -16.81899238 17.65923651 -17.375 12.5625 C-16.84261804 7.5048714 -14.63834881 4.82038757 -11.3125 1.125 C-7.61416024 -0.67419232 -4.03003258 -0.52722648 0 0 Z " fill="#FDFDFD" transform="translate(418,134)"/>
<path d="M0 0 C5.99963789 4.70241889 5.99963789 4.70241889 6.6640625 9.18359375 C6.82458026 14.09397801 6.75384749 18.02701776 3.3125 21.8125 C-0.8278029 24.67128057 -4.56983004 25.40519995 -9.50390625 25.23046875 C-13.38623728 24.4873392 -15.03648817 22.72214713 -17.6875 19.8125 C-19.97216838 15.86625462 -20.16159741 12.31642543 -19.6875 7.8125 C-15.74849977 -0.06550047 -8.42379491 -3.72214194 0 0 Z " fill="#FDFDFC" transform="translate(332.6875,135.1875)"/>
<path d="M0 0 C30.03 0 60.06 0 91 0 C88.63624965 2.36375035 87.54537012 2.46378078 84.30859375 3.03515625 C82.89030273 3.28942383 82.89030273 3.28942383 81.44335938 3.54882812 C80.45142578 3.71833984 79.45949219 3.88785156 78.4375 4.0625 C77.47263672 4.23587891 76.50777344 4.40925781 75.51367188 4.58789062 C50.46682517 9.00195341 24.46240115 8.12765861 0 1 C0 0.67 0 0.34 0 0 Z " fill="#86B374" transform="translate(325,188)"/>
<path d="M0 0 C-0.34743202 8.12990937 -0.34743202 8.12990937 -2.875 11.5 C-6.80899293 14.27693619 -10.29632364 14.33597688 -15 14 C-17 12.9375 -17 12.9375 -18 11 C-18.0625 7.5625 -18.0625 7.5625 -17 4 C-12.08017795 -1.04929105 -6.57663376 -0.42127903 0 0 Z " fill="#F5F5F5" transform="translate(501,339)"/>
</svg>
